<?xml version="1.0" encoding="UTF-8" standalone="no"?>
<!DOCTYPE svg PUBLIC "-//W3C//DTD SVG 1.1//EN"
 "http://www.w3.org/Graphics/SVG/1.1/DTD/svg11.dtd">
<!-- Generated by graphviz version 2.38.0 (20140413.2041)
 -->
<!-- Title: G Pages: 1 -->
<svg width="1094pt" height="2308pt"
 viewBox="0.00 0.00 1093.94 2308.00" xmlns="http://www.w3.org/2000/svg" xmlns:xlink="http://www.w3.org/1999/xlink">
<g id="graph0" class="graph" transform="scale(1 1) rotate(0) translate(4 2304)">
<title>G</title>
<polygon fill="white" stroke="none" points="-4,4 -4,-2304 1089.94,-2304 1089.94,4 -4,4"/>
<g id="clust1" class="cluster"><title>cluster_Global</title>
<path fill="none" stroke="gray" d="M482.908,-638C482.908,-638 1065.94,-638 1065.94,-638 1071.94,-638 1077.94,-644 1077.94,-650 1077.94,-650 1077.94,-2280 1077.94,-2280 1077.94,-2286 1071.94,-2292 1065.94,-2292 1065.94,-2292 482.908,-2292 482.908,-2292 476.908,-2292 470.908,-2286 470.908,-2280 470.908,-2280 470.908,-650 470.908,-650 470.908,-644 476.908,-638 482.908,-638"/>
<text text-anchor="middle" x="774.422" y="-2279.2" font-family="Times,serif" font-size="11.00" fill="gray">Global</text>
</g>
<g id="clust2" class="cluster"><title>cluster_\App</title>
<path fill="none" stroke="gray" d="M490.908,-646C490.908,-646 1057.94,-646 1057.94,-646 1063.94,-646 1069.94,-652 1069.94,-658 1069.94,-658 1069.94,-2252 1069.94,-2252 1069.94,-2258 1063.94,-2264 1057.94,-2264 1057.94,-2264 490.908,-2264 490.908,-2264 484.908,-2264 478.908,-2258 478.908,-2252 478.908,-2252 478.908,-658 478.908,-658 478.908,-652 484.908,-646 490.908,-646"/>
<text text-anchor="middle" x="774.422" y="-2251.2" font-family="Times,serif" font-size="11.00" fill="gray">App</text>
</g>
<g id="clust3" class="cluster"><title>cluster_\App\Exceptions</title>
<path fill="none" stroke="gray" d="M920.437,-1184C920.437,-1184 976.437,-1184 976.437,-1184 982.437,-1184 988.437,-1190 988.437,-1196 988.437,-1196 988.437,-1244 988.437,-1244 988.437,-1250 982.437,-1256 976.437,-1256 976.437,-1256 920.437,-1256 920.437,-1256 914.437,-1256 908.437,-1250 908.437,-1244 908.437,-1244 908.437,-1196 908.437,-1196 908.437,-1190 914.437,-1184 920.437,-1184"/>
<text text-anchor="middle" x="948.437" y="-1243.2" font-family="Times,serif" font-size="11.00" fill="gray">Exceptions</text>
</g>
<g id="clust4" class="cluster"><title>cluster_\App\Providers</title>
<path fill="none" stroke="gray" d="M862.937,-888C862.937,-888 1033.94,-888 1033.94,-888 1039.94,-888 1045.94,-894 1045.94,-900 1045.94,-900 1045.94,-1164 1045.94,-1164 1045.94,-1170 1039.94,-1176 1033.94,-1176 1033.94,-1176 862.937,-1176 862.937,-1176 856.937,-1176 850.937,-1170 850.937,-1164 850.937,-1164 850.937,-900 850.937,-900 850.937,-894 856.937,-888 862.937,-888"/>
<text text-anchor="middle" x="948.437" y="-1163.2" font-family="Times,serif" font-size="11.00" fill="gray">Providers</text>
</g>
<g id="clust5" class="cluster"><title>cluster_\App\Console</title>
<path fill="none" stroke="gray" d="M923.937,-808C923.937,-808 972.937,-808 972.937,-808 978.937,-808 984.937,-814 984.937,-820 984.937,-820 984.937,-868 984.937,-868 984.937,-874 978.937,-880 972.937,-880 972.937,-880 923.937,-880 923.937,-880 917.937,-880 911.937,-874 911.937,-868 911.937,-868 911.937,-820 911.937,-820 911.937,-814 917.937,-808 923.937,-808"/>
<text text-anchor="middle" x="948.437" y="-867.2" font-family="Times,serif" font-size="11.00" fill="gray">Console</text>
</g>
<g id="clust6" class="cluster"><title>cluster_\App\Http</title>
<path fill="none" stroke="gray" d="M502.408,-1380C502.408,-1380 1049.94,-1380 1049.94,-1380 1055.94,-1380 1061.94,-1386 1061.94,-1392 1061.94,-1392 1061.94,-2224 1061.94,-2224 1061.94,-2230 1055.94,-2236 1049.94,-2236 1049.94,-2236 502.408,-2236 502.408,-2236 496.408,-2236 490.408,-2230 490.408,-2224 490.408,-2224 490.408,-1392 490.408,-1392 490.408,-1386 496.408,-1380 502.408,-1380"/>
<text text-anchor="middle" x="776.172" y="-2223.2" font-family="Times,serif" font-size="11.00" fill="gray">Http</text>
</g>
<g id="clust7" class="cluster"><title>cluster_\App\Http\Controllers</title>
<path fill="none" stroke="gray" d="M510.408,-1676C510.408,-1676 1041.94,-1676 1041.94,-1676 1047.94,-1676 1053.94,-1682 1053.94,-1688 1053.94,-1688 1053.94,-2196 1053.94,-2196 1053.94,-2202 1047.94,-2208 1041.94,-2208 1041.94,-2208 510.408,-2208 510.408,-2208 504.408,-2208 498.408,-2202 498.408,-2196 498.408,-2196 498.408,-1688 498.408,-1688 498.408,-1682 504.408,-1676 510.408,-1676"/>
<text text-anchor="middle" x="776.172" y="-2195.2" font-family="Times,serif" font-size="11.00" fill="gray">Controllers</text>
</g>
<g id="clust8" class="cluster"><title>cluster_\App\Http\Controllers\Auth</title>
<path fill="none" stroke="gray" d="M862.937,-1946C862.937,-1946 1033.94,-1946 1033.94,-1946 1039.94,-1946 1045.94,-1952 1045.94,-1958 1045.94,-1958 1045.94,-2168 1045.94,-2168 1045.94,-2174 1039.94,-2180 1033.94,-2180 1033.94,-2180 862.937,-2180 862.937,-2180 856.937,-2180 850.937,-2174 850.937,-2168 850.937,-2168 850.937,-1958 850.937,-1958 850.937,-1952 856.937,-1946 862.937,-1946"/>
<text text-anchor="middle" x="948.437" y="-2167.2" font-family="Times,serif" font-size="11.00" fill="gray">Auth</text>
</g>
<g id="clust9" class="cluster"><title>cluster_\App\Http\Middleware</title>
<path fill="none" stroke="gray" d="M866.437,-1434C866.437,-1434 1030.44,-1434 1030.44,-1434 1036.44,-1434 1042.44,-1440 1042.44,-1446 1042.44,-1446 1042.44,-1656 1042.44,-1656 1042.44,-1662 1036.44,-1668 1030.44,-1668 1030.44,-1668 866.437,-1668 866.437,-1668 860.437,-1668 854.437,-1662 854.437,-1656 854.437,-1656 854.437,-1446 854.437,-1446 854.437,-1440 860.437,-1434 866.437,-1434"/>
<text text-anchor="middle" x="948.437" y="-1655.2" font-family="Times,serif" font-size="11.00" fill="gray">Middleware</text>
</g>
<g id="clust10" class="cluster"><title>cluster_\App\Library</title>
<path fill="none" stroke="gray" d="M498.908,-1264C498.908,-1264 997.937,-1264 997.937,-1264 1003.94,-1264 1009.94,-1270 1009.94,-1276 1009.94,-1276 1009.94,-1360 1009.94,-1360 1009.94,-1366 1003.94,-1372 997.937,-1372 997.937,-1372 498.908,-1372 498.908,-1372 492.908,-1372 486.908,-1366 486.908,-1360 486.908,-1360 486.908,-1276 486.908,-1276 486.908,-1270 492.908,-1264 498.908,-1264"/>
<text text-anchor="middle" x="748.422" y="-1359.2" font-family="Times,serif" font-size="11.00" fill="gray">Library</text>
</g>
<g id="clust11" class="cluster"><title>cluster_\App\Library\HttpRequest</title>
<path fill="none" stroke="gray" d="M506.908,-1272C506.908,-1272 989.937,-1272 989.937,-1272 995.937,-1272 1001.94,-1278 1001.94,-1284 1001.94,-1284 1001.94,-1332 1001.94,-1332 1001.94,-1338 995.937,-1344 989.937,-1344 989.937,-1344 506.908,-1344 506.908,-1344 500.908,-1344 494.908,-1338 494.908,-1332 494.908,-1332 494.908,-1284 494.908,-1284 494.908,-1278 500.908,-1272 506.908,-1272"/>
<text text-anchor="middle" x="748.422" y="-1331.2" font-family="Times,serif" font-size="11.00" fill="gray">HttpRequest</text>
</g>
<!-- \\App\\Exceptions\\Handler -->
<g id="node1" class="node"><title>\\App\\Exceptions\\Handler</title>
<polygon fill="none" stroke="black" points="980.437,-1228 916.437,-1228 916.437,-1192 980.437,-1192 980.437,-1228"/>
<text text-anchor="middle" x="948.437" y="-1207.2" font-family="Courier,monospace" font-size="11.00">Handler</text>
</g>
<!-- \\Illuminate\\Foundation\\Exceptions\\Handler -->
<g id="node28" class="node"><title>\\Illuminate\\Foundation\\Exceptions\\Handler</title>
<ellipse fill="none" stroke="black" cx="548.408" cy="-396" rx="164.371" ry="18"/>
<text text-anchor="middle" x="548.408" y="-392.3" font-family="Times,serif" font-size="14.00" fill="gray">\Illuminate\Foundation\Exceptions\Handler</text>
</g>
<!-- \\App\\Exceptions\\Handler&#45;&gt;\\Illuminate\\Foundation\\Exceptions\\Handler -->
<g id="edge1" class="edge"><title>\\App\\Exceptions\\Handler&#45;&gt;\\Illuminate\\Foundation\\Exceptions\\Handler</title>
<path fill="none" stroke="black" d="M916.354,-1209C894.525,-1206.53 866.541,-1199.42 850.937,-1180 745.194,-1048.4 904.578,-544.084 786.937,-423 752.106,-387.15 697.478,-379.055 649.388,-380.536"/>
<polygon fill="none" stroke="black" points="649.068,-377.046 639.235,-380.99 649.381,-384.039 649.068,-377.046"/>
</g>
<!-- \\App\\Providers\\AuthServiceProvider -->
<g id="node2" class="node"><title>\\App\\Providers\\AuthServiceProvider</title>
<polygon fill="none" stroke="black" points="1020.94,-1148 875.937,-1148 875.937,-1112 1020.94,-1112 1020.94,-1148"/>
<text text-anchor="middle" x="948.437" y="-1127.2" font-family="Courier,monospace" font-size="11.00">AuthServiceProvider</text>
</g>
<!-- \\Illuminate\\Foundation\\Support\\Providers\\AuthServiceProvider -->
<g id="node29" class="node"><title>\\Illuminate\\Foundation\\Support\\Providers\\AuthServiceProvider</title>
<ellipse fill="none" stroke="black" cx="548.408" cy="-342" rx="235.058" ry="18"/>
<text text-anchor="middle" x="548.408" y="-338.3" font-family="Times,serif" font-size="14.00" fill="gray">\Illuminate\Foundation\Support\Providers\AuthServiceProvider</text>
</g>
<!-- \\App\\Providers\\AuthServiceProvider&#45;&gt;\\Illuminate\\Foundation\\Support\\Providers\\AuthServiceProvider -->
<g id="edge2" class="edge"><title>\\App\\Providers\\AuthServiceProvider&#45;&gt;\\Illuminate\\Foundation\\Support\\Providers\\AuthServiceProvider</title>
<path fill="none" stroke="black" d="M875.593,-1120.68C866.148,-1116.59 857.49,-1110.9 850.937,-1103 746.404,-976.982 901.184,-486.282 786.937,-369 781.926,-363.857 776.508,-359.285 770.761,-355.232"/>
<polygon fill="none" stroke="black" points="772.414,-352.134 762.113,-349.657 768.622,-358.017 772.414,-352.134"/>
</g>
<!-- \\App\\Providers\\AppServiceProvider -->
<g id="node3" class="node"><title>\\App\\Providers\\AppServiceProvider</title>
<polygon fill="none" stroke="black" points="1017.44,-1094 879.437,-1094 879.437,-1058 1017.44,-1058 1017.44,-1094"/>
<text text-anchor="middle" x="948.437" y="-1073.2" font-family="Courier,monospace" font-size="11.00">AppServiceProvider</text>
</g>
<!-- \\Illuminate\\Support\\ServiceProvider -->
<g id="node32" class="node"><title>\\Illuminate\\Support\\ServiceProvider</title>
<ellipse fill="none" stroke="black" cx="548.408" cy="-288" rx="139.175" ry="18"/>
<text text-anchor="middle" x="548.408" y="-284.3" font-family="Times,serif" font-size="14.00" fill="gray">\Illuminate\Support\ServiceProvider</text>
</g>
<!-- \\App\\Providers\\AppServiceProvider&#45;&gt;\\Illuminate\\Support\\ServiceProvider -->
<g id="edge5" class="edge"><title>\\App\\Providers\\AppServiceProvider&#45;&gt;\\Illuminate\\Support\\ServiceProvider</title>
<path fill="none" stroke="black" d="M878.986,-1068.06C868.232,-1063.91 858.267,-1057.84 850.937,-1049 746.404,-922.982 901.184,-432.282 786.937,-315 750.225,-277.313 691.628,-270.33 641.822,-272.883"/>
<polygon fill="none" stroke="black" points="641.416,-269.401 631.663,-273.539 641.868,-276.387 641.416,-269.401"/>
</g>
<!-- \\App\\Providers\\BroadcastServiceProvider -->
<g id="node4" class="node"><title>\\App\\Providers\\BroadcastServiceProvider</title>
<polygon fill="none" stroke="black" points="1037.94,-1040 858.937,-1040 858.937,-1004 1037.94,-1004 1037.94,-1040"/>
<text text-anchor="middle" x="948.437" y="-1019.2" font-family="Courier,monospace" font-size="11.00">BroadcastServiceProvider</text>
</g>
<!-- \\App\\Providers\\BroadcastServiceProvider&#45;&gt;\\Illuminate\\Support\\ServiceProvider -->
<g id="edge15" class="edge"><title>\\App\\Providers\\BroadcastServiceProvider&#45;&gt;\\Illuminate\\Support\\ServiceProvider</title>
<path fill="none" stroke="black" d="M860.328,-1003.88C856.889,-1001.28 853.725,-998.338 850.937,-995 753.633,-878.514 893.217,-423.357 786.937,-315 750.232,-277.578 691.93,-270.509 642.274,-272.952"/>
<polygon fill="none" stroke="black" points="641.907,-269.468 632.145,-273.585 642.344,-276.454 641.907,-269.468"/>
</g>
<!-- \\App\\Providers\\RouteServiceProvider -->
<g id="node5" class="node"><title>\\App\\Providers\\RouteServiceProvider</title>
<polygon fill="none" stroke="black" points="1024.44,-986 872.437,-986 872.437,-950 1024.44,-950 1024.44,-986"/>
<text text-anchor="middle" x="948.437" y="-965.2" font-family="Courier,monospace" font-size="11.00">RouteServiceProvider</text>
</g>
<!-- \\Illuminate\\Foundation\\Support\\Providers\\RouteServiceProvider -->
<g id="node37" class="node"><title>\\Illuminate\\Foundation\\Support\\Providers\\RouteServiceProvider</title>
<ellipse fill="none" stroke="black" cx="548.408" cy="-234" rx="238.558" ry="18"/>
<text text-anchor="middle" x="548.408" y="-230.3" font-family="Times,serif" font-size="14.00" fill="gray">\Illuminate\Foundation\Support\Providers\RouteServiceProvider</text>
</g>
<!-- \\App\\Providers\\RouteServiceProvider&#45;&gt;\\Illuminate\\Foundation\\Support\\Providers\\RouteServiceProvider -->
<g id="edge17" class="edge"><title>\\App\\Providers\\RouteServiceProvider&#45;&gt;\\Illuminate\\Foundation\\Support\\Providers\\RouteServiceProvider</title>
<path fill="none" stroke="black" d="M872.312,-957.116C864.161,-953.179 856.736,-947.943 850.937,-941 753.633,-824.514 893.217,-369.357 786.937,-261 782.006,-255.973 776.686,-251.494 771.05,-247.513"/>
<polygon fill="none" stroke="black" points="772.871,-244.522 762.574,-242.029 769.069,-250.399 772.871,-244.522"/>
</g>
<!-- \\App\\Providers\\EventServiceProvider -->
<g id="node6" class="node"><title>\\App\\Providers\\EventServiceProvider</title>
<polygon fill="none" stroke="black" points="1024.44,-932 872.437,-932 872.437,-896 1024.44,-896 1024.44,-932"/>
<text text-anchor="middle" x="948.437" y="-911.2" font-family="Courier,monospace" font-size="11.00">EventServiceProvider</text>
</g>
<!-- \\Illuminate\\Foundation\\Support\\Providers\\EventServiceProvider -->
<g id="node38" class="node"><title>\\Illuminate\\Foundation\\Support\\Providers\\EventServiceProvider</title>
<ellipse fill="none" stroke="black" cx="548.408" cy="-180" rx="237.758" ry="18"/>
<text text-anchor="middle" x="548.408" y="-176.3" font-family="Times,serif" font-size="14.00" fill="gray">\Illuminate\Foundation\Support\Providers\EventServiceProvider</text>
</g>
<!-- \\App\\Providers\\EventServiceProvider&#45;&gt;\\Illuminate\\Foundation\\Support\\Providers\\EventServiceProvider -->
<g id="edge20" class="edge"><title>\\App\\Providers\\EventServiceProvider&#45;&gt;\\Illuminate\\Foundation\\Support\\Providers\\EventServiceProvider</title>
<path fill="none" stroke="black" d="M872.217,-900.705C864.081,-896.527 856.686,-891.083 850.937,-884 755.703,-766.67 892.775,-314.861 786.937,-207 781.956,-201.925 776.579,-197.408 770.88,-193.397"/>
<polygon fill="none" stroke="black" points="772.611,-190.349 762.308,-187.877 768.821,-196.234 772.611,-190.349"/>
</g>
<!-- \\App\\Console\\Kernel -->
<g id="node7" class="node"><title>\\App\\Console\\Kernel</title>
<polygon fill="none" stroke="black" points="976.937,-852 919.937,-852 919.937,-816 976.937,-816 976.937,-852"/>
<text text-anchor="middle" x="948.437" y="-831.2" font-family="Courier,monospace" font-size="11.00">Kernel</text>
</g>
<!-- \\Illuminate\\Foundation\\Console\\Kernel -->
<g id="node30" class="node"><title>\\Illuminate\\Foundation\\Console\\Kernel</title>
<ellipse fill="none" stroke="black" cx="548.408" cy="-126" rx="149.473" ry="18"/>
<text text-anchor="middle" x="548.408" y="-122.3" font-family="Times,serif" font-size="14.00" fill="gray">\Illuminate\Foundation\Console\Kernel</text>
</g>
<!-- \\App\\Console\\Kernel&#45;&gt;\\Illuminate\\Foundation\\Console\\Kernel -->
<g id="edge3" class="edge"><title>\\App\\Console\\Kernel&#45;&gt;\\Illuminate\\Foundation\\Console\\Kernel</title>
<path fill="none" stroke="black" d="M919.819,-835.755C897.767,-835.519 867.852,-831.219 850.937,-812 753.728,-701.552 890.121,-257.887 786.937,-153 751.136,-116.608 694.903,-108.954 646.137,-110.823"/>
<polygon fill="none" stroke="black" points="645.659,-107.343 635.855,-111.36 646.023,-114.334 645.659,-107.343"/>
</g>
<!-- \\App\\Http\\Controllers\\Auth\\ResetPasswordController -->
<g id="node8" class="node"><title>\\App\\Http\\Controllers\\Auth\\ResetPasswordController</title>
<polygon fill="none" stroke="black" points="1034.44,-2152 862.437,-2152 862.437,-2116 1034.44,-2116 1034.44,-2152"/>
<text text-anchor="middle" x="948.437" y="-2131.2" font-family="Courier,monospace" font-size="11.00">ResetPasswordController</text>
</g>
<!-- \\App\\Http\\Controllers\\Controller -->
<g id="node14" class="node"><title>\\App\\Http\\Controllers\\Controller</title>
<polygon fill="none" stroke="black" points="590.408,-1936 506.408,-1936 506.408,-1900 590.408,-1900 590.408,-1936"/>
<text text-anchor="middle" x="548.408" y="-1915.2" font-family="Courier,monospace" font-size="11.00">Controller</text>
</g>
<!-- \\App\\Http\\Controllers\\Auth\\ResetPasswordController&#45;&gt;\\App\\Http\\Controllers\\Controller -->
<g id="edge6" class="edge"><title>\\App\\Http\\Controllers\\Auth\\ResetPasswordController&#45;&gt;\\App\\Http\\Controllers\\Controller</title>
<path fill="none" stroke="black" d="M874.196,-2115.92C866.23,-2113.25 858.335,-2110.27 850.937,-2107 745.812,-2060.51 634.23,-1981.77 581.099,-1942.21"/>
<polygon fill="none" stroke="black" points="583.186,-1939.4 573.083,-1936.21 578.99,-1945 583.186,-1939.4"/>
</g>
<!-- \\App\\Http\\Controllers\\Auth\\RegisterController -->
<g id="node9" class="node"><title>\\App\\Http\\Controllers\\Auth\\RegisterController</title>
<polygon fill="none" stroke="black" points="1017.44,-2098 879.437,-2098 879.437,-2062 1017.44,-2062 1017.44,-2098"/>
<text text-anchor="middle" x="948.437" y="-2077.2" font-family="Courier,monospace" font-size="11.00">RegisterController</text>
</g>
<!-- \\App\\Http\\Controllers\\Auth\\RegisterController&#45;&gt;\\App\\Http\\Controllers\\Controller -->
<g id="edge10" class="edge"><title>\\App\\Http\\Controllers\\Auth\\RegisterController&#45;&gt;\\App\\Http\\Controllers\\Controller</title>
<path fill="none" stroke="black" d="M879.286,-2062.3C869.695,-2059.41 860.017,-2056.28 850.937,-2053 757.688,-2019.29 652.875,-1969.55 594.641,-1940.79"/>
<polygon fill="none" stroke="black" points="595.872,-1937.5 585.358,-1936.19 592.764,-1943.77 595.872,-1937.5"/>
</g>
<!-- \\App\\Http\\Controllers\\Auth\\LoginController -->
<g id="node10" class="node"><title>\\App\\Http\\Controllers\\Auth\\LoginController</title>
<polygon fill="none" stroke="black" points="1007.44,-2044 889.437,-2044 889.437,-2008 1007.44,-2008 1007.44,-2044"/>
<text text-anchor="middle" x="948.437" y="-2023.2" font-family="Courier,monospace" font-size="11.00">LoginController</text>
</g>
<!-- \\App\\Http\\Controllers\\Auth\\LoginController&#45;&gt;\\App\\Http\\Controllers\\Controller -->
<g id="edge18" class="edge"><title>\\App\\Http\\Controllers\\Auth\\LoginController&#45;&gt;\\App\\Http\\Controllers\\Controller</title>
<path fill="none" stroke="black" d="M889.133,-2010.18C811.282,-1989.06 674.612,-1951.97 600.567,-1931.88"/>
<polygon fill="none" stroke="black" points="601.115,-1928.4 590.547,-1929.16 599.282,-1935.16 601.115,-1928.4"/>
</g>
<!-- \\App\\Http\\Controllers\\Auth\\ForgotPasswordController -->
<g id="node11" class="node"><title>\\App\\Http\\Controllers\\Auth\\ForgotPasswordController</title>
<polygon fill="none" stroke="black" points="1037.94,-1990 858.937,-1990 858.937,-1954 1037.94,-1954 1037.94,-1990"/>
<text text-anchor="middle" x="948.437" y="-1969.2" font-family="Courier,monospace" font-size="11.00">ForgotPasswordController</text>
</g>
<!-- \\App\\Http\\Controllers\\Auth\\ForgotPasswordController&#45;&gt;\\App\\Http\\Controllers\\Controller -->
<g id="edge23" class="edge"><title>\\App\\Http\\Controllers\\Auth\\ForgotPasswordController&#45;&gt;\\App\\Http\\Controllers\\Controller</title>
<path fill="none" stroke="black" d="M858.607,-1959.95C779.225,-1949.18 665.692,-1933.78 600.577,-1924.94"/>
<polygon fill="none" stroke="black" points="600.935,-1921.46 590.555,-1923.58 599.993,-1928.4 600.935,-1921.46"/>
</g>
<!-- \\App\\Http\\Controllers\\FinanceController -->
<g id="node12" class="node"><title>\\App\\Http\\Controllers\\FinanceController</title>
<polygon fill="none" stroke="black" points="1013.94,-1936 882.937,-1936 882.937,-1900 1013.94,-1900 1013.94,-1936"/>
<text text-anchor="middle" x="948.437" y="-1915.2" font-family="Courier,monospace" font-size="11.00">FinanceController</text>
</g>
<!-- \\App\\Http\\Controllers\\FinanceController&#45;&gt;\\App\\Http\\Controllers\\Controller -->
<g id="edge8" class="edge"><title>\\App\\Http\\Controllers\\FinanceController&#45;&gt;\\App\\Http\\Controllers\\Controller</title>
<path fill="none" stroke="black" d="M882.6,-1918C803.866,-1918 672.684,-1918 600.651,-1918"/>
<polygon fill="none" stroke="black" points="600.465,-1914.5 590.465,-1918 600.465,-1921.5 600.465,-1914.5"/>
</g>
<!-- \\App\\Http\\Controllers\\ApproverController -->
<g id="node13" class="node"><title>\\App\\Http\\Controllers\\ApproverController</title>
<polygon fill="none" stroke="black" points="1017.44,-1882 879.437,-1882 879.437,-1846 1017.44,-1846 1017.44,-1882"/>
<text text-anchor="middle" x="948.437" y="-1861.2" font-family="Courier,monospace" font-size="11.00">ApproverController</text>
</g>
<!-- \\App\\Http\\Controllers\\ApproverController&#45;&gt;\\App\\Http\\Controllers\\Controller -->
<g id="edge9" class="edge"><title>\\App\\Http\\Controllers\\ApproverController&#45;&gt;\\App\\Http\\Controllers\\Controller</title>
<path fill="none" stroke="black" d="M879.013,-1873.28C799.887,-1884.02 671.449,-1901.44 600.525,-1911.06"/>
<polygon fill="none" stroke="black" points="599.93,-1907.61 590.491,-1912.43 600.871,-1914.55 599.93,-1907.61"/>
</g>
<!-- \\Illuminate\\Routing\\Controller -->
<g id="node34" class="node"><title>\\Illuminate\\Routing\\Controller</title>
<ellipse fill="none" stroke="black" cx="118.939" cy="-1918" rx="118.879" ry="18"/>
<text text-anchor="middle" x="118.939" y="-1914.3" font-family="Times,serif" font-size="14.00" fill="gray">\Illuminate\Routing\Controller</text>
</g>
<!-- \\App\\Http\\Controllers\\Controller&#45;&gt;\\Illuminate\\Routing\\Controller -->
<g id="edge11" class="edge"><title>\\App\\Http\\Controllers\\Controller&#45;&gt;\\Illuminate\\Routing\\Controller</title>
<path fill="none" stroke="black" d="M506.032,-1918C447.019,-1918 336.1,-1918 248.238,-1918"/>
<polygon fill="none" stroke="black" points="248.187,-1914.5 238.187,-1918 248.187,-1921.5 248.187,-1914.5"/>
</g>
<!-- \\App\\Http\\Controllers\\ClaimController -->
<g id="node15" class="node"><title>\\App\\Http\\Controllers\\ClaimController</title>
<polygon fill="none" stroke="black" points="1007.44,-1828 889.437,-1828 889.437,-1792 1007.44,-1792 1007.44,-1828"/>
<text text-anchor="middle" x="948.437" y="-1807.2" font-family="Courier,monospace" font-size="11.00">ClaimController</text>
</g>
<!-- \\App\\Http\\Controllers\\ClaimController&#45;&gt;\\App\\Http\\Controllers\\Controller -->
<g id="edge13" class="edge"><title>\\App\\Http\\Controllers\\ClaimController&#45;&gt;\\App\\Http\\Controllers\\Controller</title>
<path fill="none" stroke="black" d="M889.133,-1825.82C811.282,-1846.94 674.612,-1884.03 600.567,-1904.12"/>
<polygon fill="none" stroke="black" points="599.282,-1900.84 590.547,-1906.84 601.115,-1907.6 599.282,-1900.84"/>
</g>
<!-- \\App\\Http\\Controllers\\OrderController -->
<g id="node16" class="node"><title>\\App\\Http\\Controllers\\OrderController</title>
<polygon fill="none" stroke="black" points="1007.44,-1774 889.437,-1774 889.437,-1738 1007.44,-1738 1007.44,-1774"/>
<text text-anchor="middle" x="948.437" y="-1753.2" font-family="Courier,monospace" font-size="11.00">OrderController</text>
</g>
<!-- \\App\\Http\\Controllers\\OrderController&#45;&gt;\\App\\Http\\Controllers\\Controller -->
<g id="edge24" class="edge"><title>\\App\\Http\\Controllers\\OrderController&#45;&gt;\\App\\Http\\Controllers\\Controller</title>
<path fill="none" stroke="black" d="M889.333,-1770.75C876.57,-1774.41 863.207,-1778.56 850.937,-1783 757.688,-1816.71 652.875,-1866.45 594.641,-1895.21"/>
<polygon fill="none" stroke="black" points="592.764,-1892.23 585.358,-1899.81 595.872,-1898.5 592.764,-1892.23"/>
</g>
<!-- \\App\\Http\\Controllers\\HomeController -->
<g id="node17" class="node"><title>\\App\\Http\\Controllers\\HomeController</title>
<polygon fill="none" stroke="black" points="1003.94,-1720 892.937,-1720 892.937,-1684 1003.94,-1684 1003.94,-1720"/>
<text text-anchor="middle" x="948.437" y="-1699.2" font-family="Courier,monospace" font-size="11.00">HomeController</text>
</g>
<!-- \\App\\Http\\Controllers\\HomeController&#45;&gt;\\App\\Http\\Controllers\\Controller -->
<g id="edge25" class="edge"><title>\\App\\Http\\Controllers\\HomeController&#45;&gt;\\App\\Http\\Controllers\\Controller</title>
<path fill="none" stroke="black" d="M892.883,-1714.33C878.929,-1718.27 864.142,-1723.16 850.937,-1729 745.812,-1775.49 634.23,-1854.23 581.099,-1893.79"/>
<polygon fill="none" stroke="black" points="578.99,-1891 573.083,-1899.79 583.186,-1896.6 578.99,-1891"/>
</g>
<!-- \\App\\Http\\Middleware\\RedirectIfAuthenticated -->
<g id="node18" class="node"><title>\\App\\Http\\Middleware\\RedirectIfAuthenticated</title>
<polygon fill="none" stroke="black" points="1034.44,-1640 862.437,-1640 862.437,-1604 1034.44,-1604 1034.44,-1640"/>
<text text-anchor="middle" x="948.437" y="-1619.2" font-family="Courier,monospace" font-size="11.00">RedirectIfAuthenticated</text>
</g>
<!-- \\App\\Http\\Middleware\\EncryptCookies -->
<g id="node19" class="node"><title>\\App\\Http\\Middleware\\EncryptCookies</title>
<polygon fill="none" stroke="black" points="1003.94,-1586 892.937,-1586 892.937,-1550 1003.94,-1550 1003.94,-1586"/>
<text text-anchor="middle" x="948.437" y="-1565.2" font-family="Courier,monospace" font-size="11.00">EncryptCookies</text>
</g>
<!-- \\Illuminate\\Cookie\\Middleware\\EncryptCookies -->
<g id="node36" class="node"><title>\\Illuminate\\Cookie\\Middleware\\EncryptCookies</title>
<ellipse fill="none" stroke="black" cx="548.408" cy="-612" rx="181.968" ry="18"/>
<text text-anchor="middle" x="548.408" y="-608.3" font-family="Times,serif" font-size="14.00" fill="gray">\Illuminate\Cookie\Middleware\EncryptCookies</text>
</g>
<!-- \\App\\Http\\Middleware\\EncryptCookies&#45;&gt;\\Illuminate\\Cookie\\Middleware\\EncryptCookies -->
<g id="edge14" class="edge"><title>\\App\\Http\\Middleware\\EncryptCookies&#45;&gt;\\Illuminate\\Cookie\\Middleware\\EncryptCookies</title>
<path fill="none" stroke="black" d="M892.751,-1563.12C877.419,-1559.22 861.95,-1552.49 850.937,-1541 764.709,-1451.02 822.434,-1387.46 786.937,-1268 713.187,-1019.81 596.986,-728.713 560.65,-639.412"/>
<polygon fill="none" stroke="black" points="563.828,-637.938 556.811,-630 557.347,-640.582 563.828,-637.938"/>
</g>
<!-- \\App\\Http\\Middleware\\VerifyCsrfToken -->
<g id="node20" class="node"><title>\\App\\Http\\Middleware\\VerifyCsrfToken</title>
<polygon fill="none" stroke="black" points="1007.44,-1532 889.437,-1532 889.437,-1496 1007.44,-1496 1007.44,-1532"/>
<text text-anchor="middle" x="948.437" y="-1511.2" font-family="Courier,monospace" font-size="11.00">VerifyCsrfToken</text>
</g>
<!-- \\Illuminate\\Foundation\\Http\\Middleware\\VerifyCsrfToken -->
<g id="node39" class="node"><title>\\Illuminate\\Foundation\\Http\\Middleware\\VerifyCsrfToken</title>
<ellipse fill="none" stroke="black" cx="548.408" cy="-558" rx="218.261" ry="18"/>
<text text-anchor="middle" x="548.408" y="-554.3" font-family="Times,serif" font-size="14.00" fill="gray">\Illuminate\Foundation\Http\Middleware\VerifyCsrfToken</text>
</g>
<!-- \\App\\Http\\Middleware\\VerifyCsrfToken&#45;&gt;\\Illuminate\\Foundation\\Http\\Middleware\\VerifyCsrfToken -->
<g id="edge21" class="edge"><title>\\App\\Http\\Middleware\\VerifyCsrfToken&#45;&gt;\\Illuminate\\Foundation\\Http\\Middleware\\VerifyCsrfToken</title>
<path fill="none" stroke="black" d="M889.307,-1509.57C874.715,-1505.6 860.505,-1498.73 850.937,-1487 723.894,-1331.31 925.988,-730.069 786.937,-585 780.796,-578.593 774.023,-573.068 766.768,-568.323"/>
<polygon fill="none" stroke="black" points="768.417,-565.231 758.038,-563.104 764.825,-571.239 768.417,-565.231"/>
</g>
<!-- \\App\\Http\\Middleware\\TrimStrings -->
<g id="node21" class="node"><title>\\App\\Http\\Middleware\\TrimStrings</title>
<polygon fill="none" stroke="black" points="993.937,-1478 902.937,-1478 902.937,-1442 993.937,-1442 993.937,-1478"/>
<text text-anchor="middle" x="948.437" y="-1457.2" font-family="Courier,monospace" font-size="11.00">TrimStrings</text>
</g>
<!-- \\Illuminate\\Foundation\\Http\\Middleware\\TrimStrings -->
<g id="node40" class="node"><title>\\Illuminate\\Foundation\\Http\\Middleware\\TrimStrings</title>
<ellipse fill="none" stroke="black" cx="548.408" cy="-504" rx="200.665" ry="18"/>
<text text-anchor="middle" x="548.408" y="-500.3" font-family="Times,serif" font-size="14.00" fill="gray">\Illuminate\Foundation\Http\Middleware\TrimStrings</text>
</g>
<!-- \\App\\Http\\Middleware\\TrimStrings&#45;&gt;\\Illuminate\\Foundation\\Http\\Middleware\\TrimStrings -->
<g id="edge22" class="edge"><title>\\App\\Http\\Middleware\\TrimStrings&#45;&gt;\\Illuminate\\Foundation\\Http\\Middleware\\TrimStrings</title>
<path fill="none" stroke="black" d="M902.572,-1460.88C883.855,-1458.76 863.572,-1452.74 850.937,-1438 719.452,-1284.58 926.727,-676.896 786.937,-531 754.435,-497.078 704.236,-487.876 658.345,-488.165"/>
<polygon fill="none" stroke="black" points="658.245,-484.666 648.321,-488.376 658.392,-491.664 658.245,-484.666"/>
</g>
<!-- \\App\\Http\\Kernel -->
<g id="node22" class="node"><title>\\App\\Http\\Kernel</title>
<polygon fill="none" stroke="black" points="976.937,-1424 919.937,-1424 919.937,-1388 976.937,-1388 976.937,-1424"/>
<text text-anchor="middle" x="948.437" y="-1403.2" font-family="Courier,monospace" font-size="11.00">Kernel</text>
</g>
<!-- \\Illuminate\\Foundation\\Http\\Kernel -->
<g id="node35" class="node"><title>\\Illuminate\\Foundation\\Http\\Kernel</title>
<ellipse fill="none" stroke="black" cx="548.408" cy="-450" rx="136.476" ry="18"/>
<text text-anchor="middle" x="548.408" y="-446.3" font-family="Times,serif" font-size="14.00" fill="gray">\Illuminate\Foundation\Http\Kernel</text>
</g>
<!-- \\App\\Http\\Kernel&#45;&gt;\\Illuminate\\Foundation\\Http\\Kernel -->
<g id="edge12" class="edge"><title>\\App\\Http\\Kernel&#45;&gt;\\Illuminate\\Foundation\\Http\\Kernel</title>
<path fill="none" stroke="black" d="M919.856,-1397.42C897.196,-1388.8 866.401,-1373.14 850.937,-1348 749.25,-1182.69 921.409,-616.94 786.937,-477 750.012,-438.574 690.371,-431.903 640.091,-434.798"/>
<polygon fill="none" stroke="black" points="639.57,-431.326 629.843,-435.526 640.066,-438.309 639.57,-431.326"/>
</g>
<!-- \\App\\Library\\HttpRequest\\CurlRequest -->
<g id="node23" class="node"><title>\\App\\Library\\HttpRequest\\CurlRequest</title>
<polygon fill="none" stroke="black" points="993.937,-1316 902.937,-1316 902.937,-1280 993.937,-1280 993.937,-1316"/>
<text text-anchor="middle" x="948.437" y="-1295.2" font-family="Courier,monospace" font-size="11.00">CurlRequest</text>
</g>
<!-- \\App\\Library\\HttpRequest\\HttpRequest -->
<g id="node24" class="node"><title>\\App\\Library\\HttpRequest\\HttpRequest</title>
<polygon fill="none" stroke="black" points="593.908,-1316 502.908,-1316 502.908,-1280 593.908,-1280 593.908,-1316"/>
<text text-anchor="middle" x="548.408" y="-1295.2" font-family="Courier,monospace" font-size="11.00">HttpRequest</text>
</g>
<!-- \\App\\Library\\HttpRequest\\CurlRequest&#45;&gt;\\App\\Library\\HttpRequest\\HttpRequest -->
<g id="edge19" class="edge"><title>\\App\\Library\\HttpRequest\\CurlRequest&#45;&gt;\\App\\Library\\HttpRequest\\HttpRequest</title>
<path fill="none" stroke="black" stroke-dasharray="1,5" d="M902.936,-1298C829.647,-1298 683.764,-1298 604.225,-1298"/>
<polygon fill="none" stroke="black" points="603.926,-1294.5 593.926,-1298 603.926,-1301.5 603.926,-1294.5"/>
</g>
<!-- \\App\\User -->
<g id="node25" class="node"><title>\\App\\User</title>
<polygon fill="none" stroke="black" points="975.437,-798 921.437,-798 921.437,-762 975.437,-762 975.437,-798"/>
<text text-anchor="middle" x="948.437" y="-777.2" font-family="Courier,monospace" font-size="11.00">User</text>
</g>
<!-- \\Illuminate\\Foundation\\Auth\\User -->
<g id="node31" class="node"><title>\\Illuminate\\Foundation\\Auth\\User</title>
<ellipse fill="none" stroke="black" cx="548.408" cy="-72" rx="131.077" ry="18"/>
<text text-anchor="middle" x="548.408" y="-68.3" font-family="Times,serif" font-size="14.00" fill="gray">\Illuminate\Foundation\Auth\User</text>
</g>
<!-- \\App\\User&#45;&gt;\\Illuminate\\Foundation\\Auth\\User -->
<g id="edge4" class="edge"><title>\\App\\User&#45;&gt;\\Illuminate\\Foundation\\Auth\\User</title>
<path fill="none" stroke="black" d="M921.01,-780.285C898.761,-778.982 867.927,-773.263 850.937,-753 757.113,-641.102 889.383,-203.061 786.937,-99 749.549,-61.0236 689.91,-54.3508 639.746,-57.1333"/>
<polygon fill="none" stroke="black" points="639.26,-53.6583 629.524,-57.8358 639.74,-60.6418 639.26,-53.6583"/>
</g>
<!-- \\App\\Company -->
<g id="node26" class="node"><title>\\App\\Company</title>
<polygon fill="none" stroke="black" points="980.437,-744 916.437,-744 916.437,-708 980.437,-708 980.437,-744"/>
<text text-anchor="middle" x="948.437" y="-723.2" font-family="Courier,monospace" font-size="11.00">Company</text>
</g>
<!-- \\Illuminate\\Database\\Eloquent\\Model -->
<g id="node33" class="node"><title>\\Illuminate\\Database\\Eloquent\\Model</title>
<ellipse fill="none" stroke="black" cx="548.408" cy="-18" rx="144.075" ry="18"/>
<text text-anchor="middle" x="548.408" y="-14.3" font-family="Times,serif" font-size="14.00" fill="gray">\Illuminate\Database\Eloquent\Model</text>
</g>
<!-- \\App\\Company&#45;&gt;\\Illuminate\\Database\\Eloquent\\Model -->
<g id="edge7" class="edge"><title>\\App\\Company&#45;&gt;\\Illuminate\\Database\\Eloquent\\Model</title>
<path fill="none" stroke="black" d="M916.053,-725.929C894.371,-724.078 866.697,-717.797 850.937,-699 757.113,-587.102 889.383,-149.061 786.937,-45 750.639,-8.13041 693.367,-0.766316 644.156,-2.91462"/>
<polygon fill="none" stroke="black" points="643.893,0.576199 634.109,-3.48755 644.292,-6.41245 643.893,0.576199"/>
</g>
<!-- \\App\\Claim -->
<g id="node27" class="node"><title>\\App\\Claim</title>
<polygon fill="none" stroke="black" points="975.437,-690 921.437,-690 921.437,-654 975.437,-654 975.437,-690"/>
<text text-anchor="middle" x="948.437" y="-669.2" font-family="Courier,monospace" font-size="11.00">Claim</text>
</g>
<!-- \\App\\Claim&#45;&gt;\\Illuminate\\Database\\Eloquent\\Model -->
<g id="edge16" class="edge"><title>\\App\\Claim&#45;&gt;\\Illuminate\\Database\\Eloquent\\Model</title>
<path fill="none" stroke="black" d="M945.529,-653.85C935.261,-559.805 883.412,-129.052 786.937,-45 752.317,-14.838 703.258,-5.70301 658.706,-5.05411"/>
<polygon fill="none" stroke="black" points="658.686,-1.55419 648.683,-5.04707 658.681,-8.55419 658.686,-1.55419"/>
</g>
</g>
</svg>
